<svg width="18" height="18" viewBox="0 0 18 18" fill="none" xmlns="http://www.w3.org/2000/svg">
<g id="apple-173-svgrepo-com">
<g id="Page-1">
<g id="Dribbble-Light-Preview">
<g id="icons">
<path id="apple-[#173]" fill-rule="evenodd" clip-rule="evenodd" d="M11.7638 2.87358C12.4199 2.11309 12.8622 1.05388 12.7412 0C11.7956 0.036 10.6517 0.604032 9.97365 1.36362C9.36481 2.03771 8.83333 3.11481 8.97621 4.148C10.031 4.22629 11.1076 3.63497 11.7638 2.87358ZM14.1291 9.5625C14.1555 12.2868 16.6227 13.193 16.65 13.2047C16.63 13.2686 16.2559 14.496 15.3504 15.7649C14.5668 16.8611 13.7541 17.9529 12.4736 17.9763C11.2159 17.9988 10.8109 17.2617 9.37209 17.2617C7.93417 17.2617 7.48459 17.9528 6.29421 17.9987C5.05833 18.0428 4.1164 16.8127 3.32736 15.7201C1.71289 13.4854 0.479734 9.40508 2.13607 6.65112C2.95878 5.28404 4.42855 4.41701 6.02483 4.39541C7.23796 4.37291 8.38375 5.17764 9.12546 5.17764C9.86718 5.17764 11.2596 4.21014 12.723 4.35234C13.3355 4.37664 15.0555 4.58897 16.1594 6.13784C16.0703 6.19094 14.1072 7.28554 14.1291 9.5625Z" fill="black"/>
</g>
</g>
</g>
</g>
</svg>
