<svg width="18" height="18" viewBox="0 0 18 18" fill="none" xmlns="http://www.w3.org/2000/svg">
<g id="google-178-svgrepo-com" clip-path="url(#clip0_437_90)">
<g id="Page-1">
<g id="Dribbble-Light-Preview">
<g id="icons">
<path id="google-[#178]" fill-rule="evenodd" clip-rule="evenodd" d="M17.8394 7.20352H9.19017C9.19017 8.10302 9.19016 9.90184 9.18465 10.8013H14.1966C14.0046 11.7008 13.3236 12.9603 12.3615 13.5945C12.3615 13.5945 12.3596 13.5998 12.3578 13.5989C11.0786 14.4435 9.3905 14.6352 8.13705 14.3833C6.17232 13.9929 4.61743 12.568 3.98611 10.7583C3.98978 10.7556 3.99255 10.7306 3.99531 10.7288C3.60016 9.60625 3.60016 8.10302 3.99531 7.20352H3.99439C4.50349 5.55026 6.10522 4.04188 8.07271 3.62901C9.65515 3.2935 11.4407 3.6567 12.7539 4.88541C12.9285 4.71451 15.1707 2.52523 15.3389 2.34713C10.8525 -1.71589 3.66907 -0.286632 0.981129 4.96012H0.980208C0.980208 4.96012 0.981135 4.96033 0.975622 4.97022C-0.354109 7.54727 -0.298973 10.5839 0.984809 13.0377C0.981133 13.0404 0.978378 13.042 0.975622 13.0447C2.13902 15.3025 4.25629 17.0339 6.80732 17.6933C9.51732 18.4039 12.9661 17.9182 15.2764 15.8287L15.2792 15.8313C17.2366 14.0683 18.4551 11.0651 17.8394 7.20352Z" fill="black"/>
</g>
</g>
</g>
</g>
<defs>
<clipPath id="clip0_437_90">
<rect width="18" height="18" fill="white"/>
</clipPath>
</defs>
</svg>
