<svg width="95" height="52" viewBox="0 0 95 52" fill="none" xmlns="http://www.w3.org/2000/svg">
<path d="M69.734 0.9198H25.266C11.3697 0.9198 0 12.213 0 26.0159C0 39.8187 11.3697 51.1119 25.266 51.1119H69.734C83.6303 51.1119 95 39.8187 95 26.0159C95 12.213 83.6303 0.9198 69.734 0.9198Z" fill="white"/>
<path d="M69.734 2.95258C72.8544 2.95258 75.8863 3.56743 78.7414 4.77204C81.508 5.93901 83.984 7.6079 86.1317 9.72852C88.2666 11.8491 89.9468 14.3211 91.1217 17.0691C92.3344 19.905 92.9535 22.9165 92.9535 26.0159C92.9535 29.1152 92.3344 32.1267 91.1217 34.9626C89.9468 37.7106 88.2666 40.17 86.1317 42.3032C83.9967 44.4238 81.508 46.0927 78.7414 47.2597C75.8863 48.4643 72.8544 49.0791 69.734 49.0791H25.266C22.1456 49.0791 19.1137 48.4643 16.2586 47.2597C13.492 46.0927 11.016 44.4238 8.86835 42.3032C6.73338 40.1826 5.05319 37.7106 3.87832 34.9626C2.66556 32.1267 2.04654 29.1152 2.04654 26.0159C2.04654 22.9165 2.66556 19.905 3.87832 17.0691C5.05319 14.3211 6.73338 11.8617 8.86835 9.72852C11.0033 7.6079 13.492 5.93901 16.2586 4.77204C19.1137 3.56743 22.1456 2.95258 25.266 2.95258H69.734ZM69.734 0.9198H25.266C11.3697 0.9198 0 12.213 0 26.0159C0 39.8187 11.3697 51.1119 25.266 51.1119H69.734C83.6303 51.1119 95 39.8187 95 26.0159C95 12.213 83.6303 0.9198 69.734 0.9198Z" fill="#3C4043"/>
<path d="M45.4037 35.3893H42.9782V16.6425H49.4084C51.0381 16.6425 52.4277 17.1821 53.5647 18.2612C54.7269 19.3403 55.308 20.6579 55.308 22.2138C55.308 23.8074 54.7269 25.125 53.5647 26.1915C52.4403 27.2581 51.0507 27.7851 49.4084 27.7851H45.4037V35.3893ZM45.4037 18.9513V25.4889H49.4589C50.419 25.4889 51.2276 25.1626 51.8592 24.5227C52.5035 23.8827 52.8319 23.1047 52.8319 22.2264C52.8319 21.3606 52.5035 20.5951 51.8592 19.9552C51.2276 19.2901 50.4317 18.9639 49.4589 18.9639H45.4037V18.9513Z" fill="#3C4043"/>
<path d="M61.6498 22.1386C63.4437 22.1386 64.8585 22.6154 65.8945 23.569C66.9304 24.5227 67.4483 25.8277 67.4483 27.484V35.3893H65.1365V33.6075H65.0354C64.0374 35.0756 62.6983 35.8034 61.0308 35.8034C59.6032 35.8034 58.4157 35.3893 57.4556 34.5486C56.4955 33.7078 56.0154 32.6664 56.0154 31.4116C56.0154 30.0815 56.5208 29.0274 57.5314 28.2494C58.542 27.4589 59.8938 27.0699 61.574 27.0699C63.0141 27.0699 64.2016 27.3334 65.1238 27.8605V27.3083C65.1238 26.4676 64.7954 25.7649 64.1258 25.1752C63.4563 24.5854 62.673 24.2968 61.7761 24.2968C60.4244 24.2968 59.3506 24.8615 58.5673 26.0033L56.4323 24.6733C57.6072 22.9793 59.3506 22.1386 61.6498 22.1386ZM58.5168 31.4492C58.5168 32.0766 58.7821 32.6036 59.3253 33.0177C59.8559 33.4318 60.4875 33.6451 61.2076 33.6451C62.2309 33.6451 63.1405 33.2687 63.9363 32.5158C64.7322 31.7629 65.1365 30.8845 65.1365 29.8681C64.3785 29.2784 63.33 28.9772 61.9782 28.9772C60.9929 28.9772 60.1717 29.2156 59.5148 29.6799C58.8452 30.1693 58.5168 30.7591 58.5168 31.4492Z" fill="#3C4043"/>
<path d="M80.6371 22.5526L72.552 41.0233H70.0507L73.0574 34.5611L67.7262 22.5526H70.3665L74.2069 31.7629H74.2575L77.9968 22.5526H80.6371Z" fill="#3C4043"/>
<path d="M35.756 26.2668C35.756 25.4813 35.6852 24.7297 35.5538 24.0069H25.3868V28.1477L31.2422 28.149C31.0047 29.5268 30.2404 30.7013 29.0693 31.4843V34.1708H32.5548C34.5899 32.2999 35.756 29.5343 35.756 26.2668Z" fill="#4285F4"/>
<path d="M29.0706 31.4843C28.1004 32.1343 26.851 32.5145 25.3893 32.5145C22.5659 32.5145 20.1707 30.6248 19.3129 28.0775H15.7175V30.8481C17.4988 34.3591 21.1598 36.7683 25.3893 36.7683C28.3126 36.7683 30.7685 35.8134 32.556 34.1696L29.0706 31.4843Z" fill="#34A853"/>
<path d="M18.9743 26.0221C18.9743 25.3069 19.0943 24.6155 19.3128 23.9655V21.1949H15.7175C14.981 22.6467 14.5666 24.2855 14.5666 26.0221C14.5666 27.7588 14.9823 29.3976 15.7175 30.8494L19.3128 28.0788C19.0943 27.4288 18.9743 26.7374 18.9743 26.0221Z" fill="#FABB05"/>
<path d="M25.3893 19.5286C26.9849 19.5286 28.4137 20.0744 29.5418 21.141L32.6306 18.0755C30.7546 16.3401 28.3088 15.2748 25.3893 15.2748C21.1611 15.2748 17.4988 17.684 15.7175 21.1949L19.3128 23.9655C20.1706 21.4183 22.5659 19.5286 25.3893 19.5286Z" fill="#E94235"/>
</svg>
